<svg width="106" height="35" viewBox="0 0 106 35" fill="none" xmlns="http://www.w3.org/2000/svg">
<path d="M14.614 6.95L17.098 10.874L5.416 17.696L17.098 24.392L14.524 28.442L0.502 19.73V15.698L14.614 6.95Z" fill="#0B192F"/>
<path d="M91.022 6.95L105.098 15.662V19.73L91.076 28.442L88.502 24.572L100.202 17.696L88.502 11.036L91.022 6.95Z" fill="#0B192F"/>
<path d="M41.214 9.63C41.214 10.818 40.992 11.856 40.548 12.744C40.104 13.632 39.504 14.382 38.748 14.994C37.992 15.606 37.146 16.098 36.21 16.47L42.744 27H36.066L30.666 17.46H28.992V27H23.088V2.052H30.936C34.332 2.052 36.894 2.67 38.622 3.906C40.35 5.142 41.214 7.05 41.214 9.63ZM35.13 9.63C35.13 8.43 34.776 7.56 34.068 7.02C33.372 6.468 32.334 6.192 30.954 6.192H28.992V13.41H31.188C32.472 13.41 33.45 13.11 34.122 12.51C34.794 11.91 35.13 10.95 35.13 9.63ZM50.7939 27H44.8899V2.052H50.7939V27ZM50.9739 13.68L57.7959 2.052H63.9879L56.9319 13.248L64.6719 27H57.8319L50.9739 13.68Z" fill="#51C8B0"/>
<path d="M70.472 34.032L66.026 31.998L81.164 0.587999L85.574 2.622L70.472 34.032Z" fill="#0B192F"/>
</svg>
